<?xml version="1.0" encoding="UTF-8"?> <svg xmlns="http://www.w3.org/2000/svg" id="fc7d78f6-331c-40f3-b50e-f76c707d8c09" data-name="Layer 1" viewBox="0 0 346.36 63.96"><title>Logo-Nextcode-Final</title><g id="a782a764-c465-48d0-a21e-ee19277101a2" data-name="Group 5877"><path id="b2f310b3-02c4-4bb1-8cd9-a1bfcce7c920" data-name="Path 2950" d="M101.64,35.26,89.11,21.42H81.33V47.68h9.3V33.62l12.46,14.06h7.81V21.43h-9.26Z"></path><path id="b145fc6c-c151-4514-b6d6-14b564eb9438" data-name="Path 2951" d="M124.76,37.53h16.92V31.61H124.76V27.3h18.3V21.42h-27.7V47.68h28v-6H124.76Z"></path><path id="ebf3a849-15c7-49da-8221-726e302602f5" data-name="Path 2952" d="M177.34,21.43H165.63l-4.06,7.14-4.09-7.14H145.73l9.89,12L144,47.68h11.63l5.92-9.11,5.91,9.11h11.71l-11.6-14.21Z"></path><path id="afd9c97b-7970-4fad-84bd-911cd3bd063c" data-name="Path 2953" d="M179.27,27.3h9.34V47.68h9.44V27.3h9.29V21.42H179.27Z"></path><path id="be1a5f01-0398-40d1-babd-083e9256c904" data-name="Path 2954" d="M232.7,39.79a7.9,7.9,0,0,1-6.39,2.83,7.14,7.14,0,0,1-6-2.75,8.34,8.34,0,0,1-1.71-5.36,8.57,8.57,0,0,1,2.05-5.83,8.45,8.45,0,0,1,5.95-2.38,7.27,7.27,0,0,1,6,2.53,6.59,6.59,0,0,1,.78,1.3L242,28.6a10.31,10.31,0,0,0-2.23-4c-2.19-2.42-6.25-4.28-13.39-4.28-8.74,0-13,3-15.28,6.32a14,14,0,0,0-2.38,7.92,12.78,12.78,0,0,0,7.62,12.16,21.63,21.63,0,0,0,9.74,1.86c4.58,0,10-.85,13.43-4.28a12.12,12.12,0,0,0,3-5.13l-9-.93a5.68,5.68,0,0,1-.82,1.56"></path><path id="b23e3a1a-adac-4aa8-bd49-902693f22e3d" data-name="Path 2955" d="M264.16,20.57c-1.19-.11-2.34-.11-3.53-.11-5.88.08-9.08,1.41-11.31,2.94s-5.69,4.76-5.69,11.37a12.7,12.7,0,0,0,2.91,8.48,12.27,12.27,0,0,0,3.3,2.83c2.12,1.26,5.51,2.49,11.09,2.49a26.3,26.3,0,0,0,7.54-.89,14.46,14.46,0,0,0,4.28-2,13.1,13.1,0,0,0,5.8-11.23,14,14,0,0,0-2.38-8c-1.82-2.6-5.06-5.35-12-5.91m.6,21.57a9.13,9.13,0,0,1-3.54.63,7.3,7.3,0,0,1-7.4-5,10.21,10.21,0,0,1-.52-3.2c0-3.19,1.42-6.35,4.5-7.66a8.17,8.17,0,0,1,3.39-.59,7.51,7.51,0,0,1,2.78.41,7,7,0,0,1,2.53,1.49,8.45,8.45,0,0,1,2.38,6.32c0,3-1.19,6.32-4.13,7.62"></path><path id="e2e82f25-0ed8-4077-8131-5481a39cbf06" data-name="Path 2956" d="M300,21.54c-1-.08-2.08-.11-3.12-.11H282V47.68h16.66a17.13,17.13,0,0,0,4.94-.52A14.94,14.94,0,0,0,307,45.82a10.72,10.72,0,0,0,2.94-2.38c2.67-3.13,2.78-7.4,2.78-8.59a13.64,13.64,0,0,0-2.3-8c-1.56-2.27-4.24-4.83-10.34-5.35m2.6,16.88c-.63,1.34-1.78,2.78-5,3.19a12.77,12.77,0,0,1-1.63.12h-4.8V27.67h4.5a9.17,9.17,0,0,1,5.39,1.42,7,7,0,0,1,2.42,5.54,8.31,8.31,0,0,1-.85,3.79"></path><path id="a46503b0-da9e-496b-9760-20aff5b0040e" data-name="Path 2957" d="M325.44,41.73v-4.2h16.92V31.61H325.44V27.3h18.29V21.42H316V47.68h28v-6Z"></path><path id="f3d7d362-b6a8-4fef-be3d-6a9dec848e41" data-name="Path 2958" d="M42.85,25.18v15L29.37,32V17L15.83,8.74h0L2.29.48v45l13.54,8.27v-30L29.31,32V47l13.54,8.27h0l13.53,8.27v-45L42.85,10.19Z"></path></g></svg> 